<svg width="62" height="16" viewBox="0 0 62 16" fill="none" xmlns="http://www.w3.org/2000/svg">
<g clip-path="url(#clip0_1187_15556)">
<path d="M19.104 14.6831V1.31725H23.3642C24.777 1.31725 25.8408 1.61772 26.5533 2.21866C27.2658 2.81709 27.622 3.70598 27.622 4.88533C27.622 5.5088 27.4512 6.06467 27.1023 6.54292C26.7583 7.02617 26.2874 7.39925 25.6896 7.66216C26.3947 7.86248 26.951 8.24808 27.361 8.81146C27.7709 9.37985 27.971 10.0534 27.971 10.8321C27.971 12.0315 27.5928 12.973 26.8339 13.6565C26.0775 14.3426 25.0088 14.6831 23.6253 14.6831H19.104ZM20.8242 8.46091V13.2359H23.657C24.4574 13.2359 25.0893 13.0255 25.5505 12.6024C26.0116 12.1792 26.2434 11.5958 26.2434 10.8572C26.2434 9.25966 25.3919 8.46091 23.6839 8.46091H20.8242ZM20.8242 7.01365H23.4155C24.167 7.01365 24.7672 6.81835 25.2211 6.43274C25.67 6.04714 25.897 5.52633 25.897 4.86529C25.897 4.12914 25.6871 3.59581 25.2699 3.26279C24.8526 2.92727 24.2158 2.76201 23.3642 2.76201H20.8242V7.01365ZM37.6992 11.1877H32.2385L31.0136 14.6856H29.2422L34.2174 1.31725H35.7204L40.7029 14.6856H38.9412L37.6992 11.1877ZM32.7607 9.74041H37.1917L34.9713 3.49315L32.7607 9.74041ZM46.2954 8.72633C44.824 8.29065 43.7529 7.75481 43.0794 7.12132C42.4084 6.48783 42.0717 5.70411 42.0717 4.77515C42.0717 3.72351 42.4841 2.85215 43.3015 2.16107C44.1238 1.47249 45.1876 1.12695 46.4979 1.12695C47.3934 1.12695 48.1937 1.30473 48.8915 1.66029C49.5942 2.01334 50.1335 2.50411 50.519 3.13008C50.9045 3.75356 51.0973 4.43713 51.0973 5.17578H49.3722C49.3722 4.36702 49.1209 3.73102 48.6207 3.2678C48.1205 2.80708 47.4104 2.57421 46.4979 2.57421C45.6512 2.57421 44.9924 2.76451 44.519 3.14761C44.0432 3.53321 43.8066 4.06154 43.8066 4.7426C43.8066 5.28846 44.0286 5.75168 44.4824 6.12727C44.9314 6.50285 45.6976 6.84839 46.7809 7.16138C47.8618 7.47437 48.711 7.81991 49.321 8.1955C49.931 8.57108 50.3848 9.00927 50.68 9.51506C50.9753 10.0158 51.1217 10.6093 51.1217 11.2878C51.1217 12.372 50.7093 13.2409 49.887 13.8919C49.0623 14.5429 47.9643 14.8684 46.5857 14.8684C45.6902 14.8684 44.8533 14.6932 44.0798 14.3426C43.3064 13.9896 42.7086 13.5063 42.2864 12.8953C41.8643 12.2844 41.6569 11.5883 41.6569 10.8121H43.382C43.382 11.6183 43.6724 12.2543 44.2555 12.7201C44.8362 13.1858 45.6122 13.4212 46.5857 13.4212C47.4934 13.4212 48.1864 13.2309 48.6695 12.8503C49.155 12.4722 49.3966 11.9539 49.3966 11.3029C49.3966 10.6468 49.1697 10.141 48.7256 9.78298C48.284 9.42993 47.4714 9.07437 46.2954 8.72633ZM60.6938 8.516H55.0501V13.2359H61.6064V14.6831H53.3323V1.31725H61.5185V2.76451H55.0501V7.06874H60.6938V8.516Z" fill="#1E4FED"/>
<path d="M8.37296 16C12.6771 16 16.1688 12.4194 16.1688 8C16.1688 3.5831 12.6796 0 8.37296 0C4.29084 0 0.938285 3.22504 0.606445 7.32645H10.9081V8.67105H0.606445C0.938285 12.775 4.29084 16 8.37296 16Z" fill="#1E4FED"/>
</g>
<defs>
<clipPath id="clip0_1187_15556">
<rect width="61" height="16" fill="white" transform="translate(0.606445)"/>
</clipPath>
</defs>
</svg>
