<svg width="46" height="16" viewBox="0 0 46 16" fill="none" xmlns="http://www.w3.org/2000/svg">
<path d="M0.393555 15.5226V12.7738L6.87405 3.02328H1.12225V0.478027H10.1545V2.83916L3.40304 12.9786H10.4203V15.5239H0.393555V15.5226Z" fill="black"/>
<path d="M10.2271 8.09293C10.2271 6.30099 10.4928 4.82417 11.0219 3.66499C11.5522 2.50582 12.2446 1.64098 13.1003 1.07436C13.9561 0.50515 14.9921 0.221191 16.2109 0.221191C17.9769 0.221191 19.4149 0.895427 20.526 2.24261C21.6372 3.59109 22.1935 5.51008 22.1935 8.00084C22.1935 10.4917 21.6048 12.4859 20.4275 13.9017C19.3941 15.1543 17.9912 15.7792 16.2186 15.7792C14.4462 15.7792 13.0238 15.1607 11.9904 13.9225C10.8144 12.5066 10.2257 10.563 10.2271 8.09293ZM12.793 7.99048C12.793 9.72149 13.1223 11.0194 13.7797 11.8855C14.4371 12.7517 15.2527 13.1847 16.2265 13.1847C17.1989 13.1847 18.0184 12.7555 18.6628 11.8972C19.3072 11.0388 19.6288 9.72016 19.6288 7.93991C19.6288 6.16094 19.315 4.90585 18.6874 4.07083C18.0612 3.23711 17.2391 2.81831 16.2251 2.81831C15.2112 2.81831 14.3852 3.23841 13.7487 4.08121C13.1107 4.92141 12.793 6.22453 12.793 7.99048Z" fill="black"/>
<path d="M22.8926 15.5226V0.478027H28.1363C29.477 0.478027 30.4349 0.612875 31.0092 0.882569C31.5849 1.15356 32.0573 1.62164 32.4256 2.2881C32.7948 2.95456 32.9792 3.75457 32.9792 4.68424C32.9792 5.8616 32.6973 6.80813 32.1324 7.52769C31.5695 8.24735 30.7682 8.69855 29.7273 8.88268C30.2612 9.26518 30.7023 9.68528 31.0511 10.1404C31.3994 10.5955 31.876 11.411 32.4771 12.5884L33.9762 15.5239H31.0046L29.2006 12.25C28.5522 11.0662 28.1117 10.3258 27.8782 10.0276C27.6447 9.72936 27.3983 9.52449 27.139 9.41172C26.8784 9.29884 26.4622 9.24179 25.8865 9.24179H25.3731V15.5226H22.8926ZM25.377 6.84051H27.2246C28.3539 6.84051 29.0721 6.79123 29.3797 6.69137C29.6883 6.59157 29.9372 6.39192 30.1288 6.09108C30.3194 5.79024 30.4157 5.39088 30.4157 4.8904C30.4157 4.38991 30.3194 4.02686 30.1288 3.73642C29.9372 3.44597 29.6777 3.24629 29.3484 3.13608C29.1149 3.06088 28.442 3.02328 27.327 3.02328H25.377V6.84051Z" fill="black"/>
<path d="M45.6066 15.5226H42.9067L41.827 12.1152H36.888L35.868 15.5226H33.2202L38.0239 0.478027H40.6625L45.6066 15.5226ZM41.0241 9.5699L39.3202 3.98666L37.649 9.5699H41.0241Z" fill="black"/>
</svg>
